Genre:Action | Comedy | Crime
Language:English
IMDb:http://www.imdb.com/title/tt1836944/
Source:DvD Thanks
Encoder:Tony

Format : AVI
Format/Info : Audio Video Interleave
File size : 1.45 GiB
Duration : 1h 34mn
Overall bit rate : 2 201 Kbps

Video
ID : 0
Format : MPEG-4 Visual
Format profile : Advanced Simple@L5
Format settings, BVOP : 1
Format settings, QPel : No
Format settings, GMC : No warppoints
Format settings, Matrix : Default (H.263)
Codec ID : XVID
Codec ID/Hint : XviD
Duration : 1h 34mn
Bit rate : 1 807 Kbps
Width : 640 pixels
Height : 272 pixels
Display aspect ratio : 2.35:1
Frame rate : 25.000 fps
Color space : YUV
Chroma subsampling : 4:2:0
Bit depth : 8 bits
Scan type : Progressive
Compression mode : Lossy
Bits/(Pixel*Frame) : 0.415
Stream size : 1.19 GiB (82%)
Writing library : XviD 1.2.1 (UTC 2008-12-04)

Audio
ID : 1
Format : AC-3
Format/Info : Audio Coding 3
Mode extension : CM (complete main)
Codec ID : 2000
Duration : 1h 34mn
Bit rate mode : Constant
Bit rate : 384 Kbps
Channel(s) : 6 channels
Channel positions : Front: L C R, Side: L R, LFE
Sampling rate : 48.0 KHz
Bit depth : 16 bits
Compression mode : Lossy
Stream size : 260 MiB (17%)
Alignment : Aligned on interleaves
Interleave, duration : 40 ms (1.00 video frame)
Interleave, preload duration : 512 ms


Plot:
When three redneck brothers agree to help a woman save her son from an abusive father, they become targets on the run from an odd cast of characters.
 
http://lookpic.com/O/i2/1965/Oi8WyitI.png
 
http://lookpic.com/O/i2/1421/Rn50wxzB.png
 
http://lookpic.com/O/i2/865/VfqrcODa.png